<svg width="24" height="24" viewBox="0 0 24 24" fill="none" xmlns="http://www.w3.org/2000/svg"><g><path d="M16.584 19C15.8125 20.7657 14.0501 21.9998 12 22C9.94994 21.9999 8.18761 20.7657 7.41606 19H16.584Z" fill="black"/><path d="M2.29302 2.29297C2.68354 1.90248 3.31657 1.90246 3.70708 2.29297L21.7071 20.293C22.0976 20.6835 22.0976 21.3165 21.7071 21.707C21.3166 22.0975 20.6835 22.0975 20.293 21.707L16.086 17.5H7.13188C4.691 17.4996 2.81911 15.3319 3.17485 12.917L3.69927 9.35645C3.82323 8.19948 4.19203 7.11976 4.74907 6.16309L2.29302 3.70703C1.90249 3.31651 1.90249 2.68349 2.29302 2.29297Z" fill="black"/><path d="M12 2C16.2076 2.00022 19.8516 5.17278 20.2999 9.35645L20.8243 12.917C20.9847 14.0058 20.6908 15.0432 20.0977 15.8555L7.5352 3.29297C8.83911 2.4734 10.3776 2.00007 12 2Z" fill="black"/></g></svg>